<svg width="17" height="24" viewBox="0 0 17 24" fill="none" xmlns="http://www.w3.org/2000/svg">
<path fill-rule="evenodd" clip-rule="evenodd" d="M0.026123 8.47377C0.026123 3.80133 3.82745 0 8.49994 0C13.1724 0 16.9737 3.80133 16.9738 8.47377C16.9738 14.2724 9.39052 22.7852 9.06766 23.1447C8.76495 23.4819 8.23548 23.4825 7.93222 23.1447C7.60936 22.7852 0.026123 14.2724 0.026123 8.47377ZM1.5521 8.47386C1.5521 12.4535 5.94779 18.4345 8.49994 21.4661C11.0527 18.4336 15.4477 12.4536 15.4478 8.47381C15.4478 4.64274 12.331 1.52598 8.49994 1.52598C4.66886 1.52598 1.5521 4.64274 1.5521 8.47386Z" fill="black"/>
<path fill-rule="evenodd" clip-rule="evenodd" d="M4.23657 8.47335C4.23657 6.12251 6.14907 4.20996 8.49992 4.20996C10.8507 4.20996 12.7632 6.12251 12.7632 8.47335C12.7632 10.8242 10.8507 12.7367 8.49992 12.7367C6.14912 12.7367 4.23657 10.8242 4.23657 8.47335ZM5.76255 8.47335C5.76255 9.98279 6.99048 11.2108 8.49992 11.2108C10.0093 11.2108 11.2373 9.98279 11.2373 8.47335C11.2373 6.96392 10.0093 5.73594 8.49992 5.73594C6.99053 5.73594 5.76255 6.96392 5.76255 8.47335Z" fill="black"/>
</svg>
