<svg width="22" height="22" viewBox="0 0 22 22" fill="none" xmlns="http://www.w3.org/2000/svg">
<path d="M20.5516 16.819L17.4629 13.723C16.8477 13.1089 15.8289 13.1275 15.1923 13.7659L13.6362 15.3251C13.5379 15.2708 13.4361 15.2141 13.3291 15.1539C12.3465 14.6082 11.0016 13.8602 9.58629 12.4407C8.16683 11.0182 7.41987 9.66818 6.87373 8.68266C6.8161 8.57825 6.76088 8.47758 6.70635 8.38199L7.75072 7.33681L8.26417 6.82156C8.90179 6.18233 8.91937 5.16151 8.3056 4.54559L5.21691 1.44922C4.60313 0.834168 3.58388 0.852827 2.94626 1.49206L2.07576 2.36954L2.09955 2.39321C1.80766 2.7665 1.56375 3.19704 1.38223 3.66132C1.21492 4.10325 1.11074 4.52498 1.06311 4.94756C0.655268 8.33632 2.20033 11.4334 6.39343 15.636C12.1896 21.4449 16.8605 21.0061 17.062 20.9847C17.5009 20.9321 17.9215 20.827 18.3489 20.6606C18.8081 20.4808 19.2374 20.2367 19.6096 19.9448L19.6286 19.9617L20.5105 19.0962C21.1468 18.4571 21.1651 17.4359 20.5516 16.819Z" stroke="black" stroke-width="1.5"/>
</svg>
