<svg width="16" height="15" viewBox="0 0 16 15" fill="none" xmlns="http://www.w3.org/2000/svg">
<path fill-rule="evenodd" clip-rule="evenodd" d="M7.03777 13.6002L13.3349 7.20473C14.5531 5.96382 14.5531 3.94527 13.3349 2.705C12.1167 1.46473 10.1335 1.46409 8.91473 2.705L2.29882 9.46827C1.56754 10.2128 1.56754 11.4238 2.29882 12.1684C3.03011 12.9123 4.2189 12.9129 4.95019 12.1684L10.2404 6.75482C10.4842 6.50664 10.4842 6.10318 10.2404 5.855C9.99665 5.60682 9.60038 5.60682 9.35662 5.855L4.95019 10.3687L4.0664 9.46827L8.47221 4.95455C9.20474 4.20873 10.3929 4.20936 11.1248 4.95455C11.8567 5.69973 11.8567 6.90882 11.1248 7.654L5.8346 13.0675C5.22395 13.6893 4.42454 13.9992 3.62451 13.9992C1.89381 13.9992 0.5 12.5699 0.5 10.8174C0.5 10.0028 0.805013 9.18891 1.41566 8.56718L8.03031 1.80455C8.88535 0.935273 10.0048 0.5 11.1248 0.5C13.5393 0.5 15.5 2.49182 15.5 4.95455C15.5 6.09491 15.0725 7.23464 14.2187 8.10455L7.92156 14.5L7.03777 13.6002Z" fill="#BAC1C4"/>
</svg>
