<svg width="15" height="15" viewBox="0 0 15 15" fill="none" xmlns="http://www.w3.org/2000/svg">
<path fill-rule="evenodd" clip-rule="evenodd" d="M7.5 1.25C10.9462 1.25 13.75 4.05375 13.75 7.5C13.75 10.9462 10.9462 13.75 7.5 13.75C4.05375 13.75 1.25 10.9462 1.25 7.5C1.25 4.05375 4.05375 1.25 7.5 1.25ZM7.5 0C3.35813 0 0 3.35813 0 7.5C0 11.6419 3.35813 15 7.5 15C11.6419 15 15 11.6419 15 7.5C15 3.35813 11.6419 0 7.5 0ZM11.25 8.75H3.75C3.95688 9.66562 5.51687 11.25 7.50062 11.25C9.45938 11.25 11.0419 9.67437 11.25 8.75ZM5.3125 5C4.795 5 4.375 5.41937 4.375 5.9375C4.375 6.45563 4.795 6.875 5.3125 6.875C5.83 6.875 6.25 6.45563 6.25 5.9375C6.25 5.41937 5.83 5 5.3125 5ZM9.6875 5C9.17 5 8.75 5.41937 8.75 5.9375C8.75 6.45563 9.17 6.875 9.6875 6.875C10.205 6.875 10.625 6.45563 10.625 5.9375C10.625 5.41937 10.205 5 9.6875 5Z" fill="#BAC1C4"/>
</svg>
